<svg width="218" height="67" viewBox="0 0 218 67" fill="none" xmlns="http://www.w3.org/2000/svg">
<path d="M1.764 1.26H10.332L13.464 12.528C13.584 12.936 13.716 13.476 13.86 14.148C14.028 14.796 14.196 15.432 14.364 16.056C14.556 16.8 14.748 17.58 14.94 18.396H15.012C15.18 17.58 15.36 16.8 15.552 16.056C15.696 15.432 15.852 14.796 16.02 14.148C16.188 13.476 16.332 12.936 16.452 12.528L19.62 1.26H28.26V27H22.428V14.04C22.428 13.776 22.428 13.368 22.428 12.816C22.428 12.24 22.44 11.664 22.464 11.088C22.488 10.416 22.512 9.684 22.536 8.892H22.464C22.272 9.636 22.104 10.32 21.96 10.944C21.84 11.496 21.708 12.036 21.564 12.564C21.444 13.068 21.348 13.44 21.276 13.68L17.568 27H12.312L8.64 13.716C8.568 13.476 8.46 13.092 8.316 12.564C8.172 12.036 8.04 11.496 7.92 10.944C7.776 10.32 7.62 9.636 7.452 8.892H7.38C7.38 9.684 7.392 10.416 7.416 11.088C7.44 11.664 7.452 12.24 7.452 12.816C7.476 13.392 7.488 13.812 7.488 14.076V27H1.764V1.26ZM36.5034 27.54C34.3674 27.54 32.7474 26.916 31.6434 25.668C30.5634 24.396 30.0234 22.728 30.0234 20.664V8.568H35.8554V19.44C35.8554 20.448 36.0834 21.228 36.5394 21.78C36.9954 22.308 37.6914 22.572 38.6274 22.572C39.6354 22.572 40.4274 22.236 41.0034 21.564C41.5794 20.868 41.8674 19.968 41.8674 18.864V8.568H47.7354V27H42.1194V24.732H42.0114C41.3394 25.644 40.5714 26.34 39.7074 26.82C38.8674 27.3 37.7994 27.54 36.5034 27.54ZM57.8661 27.576C55.1541 27.576 53.0061 27 51.4221 25.848C49.8381 24.672 48.9981 23.064 48.9021 21.024H54.4461C54.5661 21.936 54.9141 22.62 55.4901 23.076C56.0661 23.532 56.8461 23.76 57.8301 23.76C58.7181 23.76 59.4141 23.604 59.9181 23.292C60.4461 22.98 60.7101 22.524 60.7101 21.924C60.7101 21.516 60.5781 21.192 60.3141 20.952C60.0501 20.688 59.7021 20.484 59.2701 20.34C58.8381 20.172 58.3341 20.052 57.7581 19.98C57.2061 19.884 56.6301 19.776 56.0301 19.656C55.2381 19.512 54.4461 19.344 53.6541 19.152C52.8621 18.936 52.1421 18.624 51.4941 18.216C50.8701 17.808 50.3661 17.268 49.9821 16.596C49.5981 15.9 49.4061 15.012 49.4061 13.932C49.4061 12.972 49.6101 12.12 50.0181 11.376C50.4501 10.632 51.0261 10.02 51.7461 9.54C52.4661 9.036 53.3061 8.664 54.2661 8.424C55.2501 8.16 56.2821 8.028 57.3621 8.028C59.9781 8.028 61.9821 8.556 63.3741 9.612C64.7661 10.668 65.5341 12.108 65.6781 13.932H60.2781C60.1581 13.092 59.8341 12.528 59.3061 12.24C58.8021 11.928 58.1421 11.772 57.3261 11.772C56.6061 11.772 55.9941 11.916 55.4901 12.204C55.0101 12.468 54.7701 12.888 54.7701 13.464C54.7701 13.8 54.8901 14.064 55.1301 14.256C55.3701 14.448 55.6941 14.616 56.1021 14.76C56.5101 14.88 56.9781 14.988 57.5061 15.084C58.0581 15.18 58.6221 15.276 59.1981 15.372C60.0141 15.516 60.8301 15.696 61.6461 15.912C62.4861 16.104 63.2421 16.416 63.9141 16.848C64.6101 17.28 65.1741 17.868 65.6061 18.612C66.0381 19.332 66.2541 20.28 66.2541 21.456C66.2541 22.464 66.0381 23.352 65.6061 24.12C65.1981 24.888 64.6221 25.524 63.8781 26.028C63.1341 26.532 62.2461 26.916 61.2141 27.18C60.1821 27.444 59.0661 27.576 57.8661 27.576ZM73.4147 27.468C72.5027 27.468 71.6507 27.348 70.8587 27.108C70.0907 26.868 69.4307 26.508 68.8787 26.028C68.3267 25.548 67.8947 24.96 67.5827 24.264C67.2707 23.568 67.1147 22.764 67.1147 21.852C67.1147 20.844 67.2947 20.004 67.6547 19.332C68.0387 18.636 68.5547 18.072 69.2027 17.64C69.8507 17.184 70.5947 16.836 71.4347 16.596C72.2987 16.356 73.2107 16.176 74.1707 16.056C75.8987 15.84 77.1107 15.6 77.8067 15.336C78.5027 15.072 78.8507 14.628 78.8507 14.004C78.8507 13.404 78.6467 12.924 78.2387 12.564C77.8547 12.204 77.2187 12.024 76.3307 12.024C75.3947 12.024 74.6867 12.228 74.2067 12.636C73.7267 13.044 73.4387 13.632 73.3427 14.4H67.9427C67.9667 13.536 68.1587 12.72 68.5187 11.952C68.8787 11.184 69.3947 10.512 70.0667 9.936C70.7627 9.36 71.6267 8.904 72.6587 8.568C73.6907 8.232 74.9027 8.064 76.2947 8.064C77.6867 8.064 78.8627 8.196 79.8227 8.46C80.7827 8.7 81.5987 9.072 82.2707 9.576C83.0627 10.152 83.6507 10.884 84.0347 11.772C84.4187 12.66 84.6107 13.68 84.6107 14.832V24.12C84.6107 24.864 84.6467 25.452 84.7187 25.884C84.8147 26.292 84.9947 26.58 85.2587 26.748V27H79.5707C79.4267 26.808 79.3067 26.544 79.2107 26.208C79.1147 25.848 79.0307 25.428 78.9587 24.948H78.8867C78.3347 25.716 77.6267 26.328 76.7627 26.784C75.9227 27.24 74.8067 27.468 73.4147 27.468ZM75.2867 23.724C76.3907 23.724 77.2787 23.424 77.9507 22.824C78.6467 22.224 78.9947 21.42 78.9947 20.412V18.216C78.6107 18.408 78.1547 18.588 77.6267 18.756C77.1227 18.9 76.5707 19.044 75.9707 19.188C74.8427 19.452 74.0267 19.764 73.5227 20.124C73.0187 20.46 72.7667 20.976 72.7667 21.672C72.7667 22.416 73.0067 22.944 73.4867 23.256C73.9667 23.568 74.5667 23.724 75.2867 23.724ZM94.4033 27.576C91.6913 27.576 89.5433 27 87.9593 25.848C86.3753 24.672 85.5353 23.064 85.4393 21.024H90.9833C91.1033 21.936 91.4513 22.62 92.0273 23.076C92.6033 23.532 93.3833 23.76 94.3673 23.76C95.2553 23.76 95.9513 23.604 96.4553 23.292C96.9833 22.98 97.2473 22.524 97.2473 21.924C97.2473 21.516 97.1153 21.192 96.8513 20.952C96.5873 20.688 96.2393 20.484 95.8073 20.34C95.3753 20.172 94.8713 20.052 94.2953 19.98C93.7433 19.884 93.1673 19.776 92.5673 19.656C91.7753 19.512 90.9833 19.344 90.1913 19.152C89.3993 18.936 88.6793 18.624 88.0313 18.216C87.4073 17.808 86.9033 17.268 86.5193 16.596C86.1353 15.9 85.9433 15.012 85.9433 13.932C85.9433 12.972 86.1473 12.12 86.5553 11.376C86.9873 10.632 87.5633 10.02 88.2833 9.54C89.0033 9.036 89.8433 8.664 90.8033 8.424C91.7873 8.16 92.8193 8.028 93.8993 8.028C96.5153 8.028 98.5193 8.556 99.9113 9.612C101.303 10.668 102.071 12.108 102.215 13.932H96.8153C96.6953 13.092 96.3713 12.528 95.8433 12.24C95.3393 11.928 94.6793 11.772 93.8633 11.772C93.1433 11.772 92.5313 11.916 92.0273 12.204C91.5473 12.468 91.3073 12.888 91.3073 13.464C91.3073 13.8 91.4273 14.064 91.6673 14.256C91.9073 14.448 92.2313 14.616 92.6393 14.76C93.0473 14.88 93.5153 14.988 94.0433 15.084C94.5953 15.18 95.1593 15.276 95.7353 15.372C96.5513 15.516 97.3673 15.696 98.1833 15.912C99.0233 16.104 99.7793 16.416 100.451 16.848C101.147 17.28 101.711 17.868 102.143 18.612C102.575 19.332 102.791 20.28 102.791 21.456C102.791 22.464 102.575 23.352 102.143 24.12C101.735 24.888 101.159 25.524 100.415 26.028C99.6713 26.532 98.7833 26.916 97.7513 27.18C96.7193 27.444 95.6033 27.576 94.4033 27.576ZM103.796 1.26H109.664V10.836H109.772C110.444 9.948 111.2 9.264 112.04 8.784C112.88 8.28 113.948 8.028 115.244 8.028C116.252 8.028 117.152 8.208 117.944 8.568C118.736 8.904 119.408 9.384 119.96 10.008C120.512 10.608 120.932 11.34 121.22 12.204C121.508 13.044 121.652 13.98 121.652 15.012V27H115.784V16.2C115.784 15.216 115.544 14.424 115.064 13.824C114.584 13.224 113.864 12.924 112.904 12.924C111.92 12.924 111.128 13.284 110.528 14.004C109.952 14.724 109.664 15.66 109.664 16.812V27H103.796V1.26ZM123.607 8.568H129.475V27H123.607V8.568ZM123.607 1.26H129.475V6.012H123.607V1.26ZM147.061 27.612C145.357 27.612 143.797 27.42 142.381 27.036C140.989 26.676 139.789 26.136 138.781 25.416C137.797 24.672 137.017 23.76 136.441 22.68C135.889 21.576 135.601 20.316 135.577 18.9H141.985C142.129 20.196 142.621 21.132 143.461 21.708C144.301 22.284 145.489 22.572 147.025 22.572C147.553 22.572 148.057 22.524 148.537 22.428C149.041 22.332 149.485 22.176 149.869 21.96C150.253 21.744 150.565 21.468 150.805 21.132C151.045 20.772 151.165 20.352 151.165 19.872C151.165 19.368 151.033 18.948 150.769 18.612C150.529 18.276 150.169 17.988 149.689 17.748C149.209 17.508 148.621 17.304 147.925 17.136C147.229 16.944 146.437 16.74 145.549 16.524C144.421 16.26 143.305 15.96 142.201 15.624C141.121 15.288 140.149 14.832 139.285 14.256C138.421 13.68 137.713 12.948 137.161 12.06C136.633 11.172 136.369 10.056 136.369 8.712C136.369 7.344 136.633 6.168 137.161 5.184C137.689 4.176 138.409 3.348 139.321 2.7C140.233 2.052 141.313 1.572 142.561 1.26C143.809 0.947999 145.153 0.791998 146.593 0.791998C147.985 0.791998 149.281 0.959998 150.481 1.296C151.705 1.608 152.761 2.088 153.649 2.736C154.561 3.384 155.281 4.212 155.809 5.22C156.361 6.204 156.673 7.368 156.745 8.712H150.517C150.397 7.704 149.977 6.936 149.257 6.408C148.537 5.88 147.577 5.616 146.377 5.616C145.249 5.616 144.349 5.844 143.677 6.3C143.005 6.732 142.669 7.308 142.669 8.028C142.669 8.484 142.789 8.868 143.029 9.18C143.293 9.468 143.665 9.72 144.145 9.936C144.625 10.152 145.225 10.356 145.945 10.548C146.689 10.716 147.541 10.908 148.501 11.124C149.701 11.412 150.841 11.736 151.921 12.096C153.025 12.456 153.997 12.936 154.837 13.536C155.677 14.136 156.349 14.892 156.853 15.804C157.357 16.716 157.609 17.856 157.609 19.224C157.609 20.568 157.333 21.768 156.781 22.824C156.253 23.856 155.509 24.732 154.549 25.452C153.613 26.148 152.497 26.676 151.201 27.036C149.929 27.42 148.549 27.612 147.061 27.612ZM168.135 23.4C169.431 23.4 170.403 22.896 171.051 21.888C171.723 20.856 172.059 19.5 172.059 17.82C172.059 16.14 171.723 14.784 171.051 13.752C170.403 12.72 169.431 12.204 168.135 12.204C166.839 12.204 165.867 12.72 165.219 13.752C164.571 14.784 164.247 16.14 164.247 17.82C164.247 19.5 164.571 20.856 165.219 21.888C165.867 22.896 166.839 23.4 168.135 23.4ZM168.171 27.576C166.683 27.576 165.327 27.336 164.103 26.856C162.903 26.352 161.871 25.668 161.007 24.804C160.143 23.916 159.471 22.884 158.991 21.708C158.535 20.508 158.307 19.212 158.307 17.82C158.307 16.428 158.535 15.144 158.991 13.968C159.471 12.768 160.143 11.736 161.007 10.872C161.871 9.984 162.903 9.3 164.103 8.82C165.327 8.316 166.683 8.064 168.171 8.064C169.659 8.064 171.003 8.316 172.203 8.82C173.427 9.3 174.459 9.984 175.299 10.872C176.163 11.736 176.823 12.768 177.279 13.968C177.759 15.144 177.999 16.428 177.999 17.82C177.999 19.212 177.759 20.508 177.279 21.708C176.823 22.884 176.163 23.916 175.299 24.804C174.459 25.668 173.427 26.352 172.203 26.856C171.003 27.336 169.659 27.576 168.171 27.576ZM178.938 1.26H184.878V27H178.938V1.26ZM192.442 27.468C191.53 27.468 190.678 27.348 189.886 27.108C189.118 26.868 188.458 26.508 187.906 26.028C187.354 25.548 186.922 24.96 186.61 24.264C186.298 23.568 186.142 22.764 186.142 21.852C186.142 20.844 186.322 20.004 186.682 19.332C187.066 18.636 187.582 18.072 188.23 17.64C188.878 17.184 189.622 16.836 190.462 16.596C191.326 16.356 192.238 16.176 193.198 16.056C194.926 15.84 196.138 15.6 196.834 15.336C197.53 15.072 197.878 14.628 197.878 14.004C197.878 13.404 197.674 12.924 197.266 12.564C196.882 12.204 196.246 12.024 195.358 12.024C194.422 12.024 193.714 12.228 193.234 12.636C192.754 13.044 192.466 13.632 192.37 14.4H186.97C186.994 13.536 187.186 12.72 187.546 11.952C187.906 11.184 188.422 10.512 189.094 9.936C189.79 9.36 190.654 8.904 191.686 8.568C192.718 8.232 193.93 8.064 195.322 8.064C196.714 8.064 197.89 8.196 198.85 8.46C199.81 8.7 200.626 9.072 201.298 9.576C202.09 10.152 202.678 10.884 203.062 11.772C203.446 12.66 203.638 13.68 203.638 14.832V24.12C203.638 24.864 203.674 25.452 203.746 25.884C203.842 26.292 204.022 26.58 204.286 26.748V27H198.598C198.454 26.808 198.334 26.544 198.238 26.208C198.142 25.848 198.058 25.428 197.986 24.948H197.914C197.362 25.716 196.654 26.328 195.79 26.784C194.95 27.24 193.834 27.468 192.442 27.468ZM194.314 23.724C195.418 23.724 196.306 23.424 196.978 22.824C197.674 22.224 198.022 21.42 198.022 20.412V18.216C197.638 18.408 197.182 18.588 196.654 18.756C196.15 18.9 195.598 19.044 194.998 19.188C193.87 19.452 193.054 19.764 192.55 20.124C192.046 20.46 191.794 20.976 191.794 21.672C191.794 22.416 192.034 22.944 192.514 23.256C192.994 23.568 193.594 23.724 194.314 23.724ZM205.403 8.568H211.019V11.448H211.127C211.775 10.344 212.495 9.54 213.287 9.036C214.079 8.532 215.039 8.28 216.167 8.28C216.719 8.28 217.103 8.328 217.319 8.424V13.464H217.175C215.375 13.2 213.935 13.512 212.855 14.4C211.799 15.264 211.271 16.704 211.271 18.72V27H205.403V8.568ZM13.464 55.428C14.496 55.428 15.396 55.224 16.164 54.816C16.956 54.384 17.616 53.808 18.144 53.088C18.672 52.344 19.056 51.468 19.296 50.46C19.56 49.452 19.692 48.36 19.692 47.184C19.692 46.008 19.56 44.916 19.296 43.908C19.056 42.9 18.672 42.024 18.144 41.28C17.616 40.536 16.956 39.96 16.164 39.552C15.396 39.12 14.496 38.904 13.464 38.904C12.432 38.904 11.52 39.12 10.728 39.552C9.96 39.96 9.312 40.536 8.784 41.28C8.256 42.024 7.86 42.9 7.596 43.908C7.332 44.916 7.2 46.008 7.2 47.184C7.2 48.36 7.332 49.452 7.596 50.46C7.86 51.468 8.256 52.344 8.784 53.088C9.312 53.808 9.96 54.384 10.728 54.816C11.52 55.224 12.432 55.428 13.464 55.428ZM13.428 60.612C11.484 60.612 9.72 60.276 8.136 59.604C6.576 58.932 5.244 57.996 4.14 56.796C3.06 55.596 2.22 54.18 1.62 52.548C1.02 50.892 0.72 49.104 0.72 47.184C0.72 45.264 1.02 43.488 1.62 41.856C2.22 40.2 3.06 38.772 4.14 37.572C5.244 36.372 6.576 35.436 8.136 34.764C9.72 34.092 11.484 33.756 13.428 33.756C15.372 33.756 17.124 34.092 18.684 34.764C20.268 35.436 21.612 36.372 22.716 37.572C23.82 38.772 24.672 40.2 25.272 41.856C25.872 43.488 26.172 45.264 26.172 47.184C26.172 49.104 25.872 50.892 25.272 52.548C24.672 54.18 23.82 55.596 22.716 56.796C21.612 57.996 20.268 58.932 18.684 59.604C17.124 60.276 15.372 60.612 13.428 60.612ZM38.4865 60.576C37.2625 60.576 36.1705 60.336 35.2105 59.856C34.2505 59.352 33.4825 58.62 32.9065 57.66H32.8345V60H27.2185V34.26H33.0865V43.656H33.1945C33.7705 42.864 34.4665 42.228 35.2825 41.748C36.1225 41.268 37.1785 41.028 38.4505 41.028C39.6505 41.028 40.7305 41.28 41.6905 41.784C42.6745 42.264 43.5025 42.948 44.1745 43.836C44.8705 44.7 45.3985 45.732 45.7585 46.932C46.1425 48.108 46.3345 49.392 46.3345 50.784C46.3345 52.32 46.1425 53.7 45.7585 54.924C45.3985 56.124 44.8705 57.144 44.1745 57.984C43.5025 58.824 42.6745 59.472 41.6905 59.928C40.7305 60.36 39.6625 60.576 38.4865 60.576ZM36.8305 55.932C37.9825 55.932 38.8585 55.476 39.4585 54.564C40.0825 53.628 40.3945 52.356 40.3945 50.748C40.3945 49.164 40.0825 47.892 39.4585 46.932C38.8585 45.972 37.9585 45.492 36.7585 45.492C35.4625 45.492 34.4905 45.996 33.8425 47.004C33.2185 48.012 32.9065 49.272 32.9065 50.784C32.9065 52.32 33.2545 53.568 33.9505 54.528C34.6465 55.464 35.6065 55.932 36.8305 55.932ZM55.8003 60.576C53.0883 60.576 50.9403 60 49.3563 58.848C47.7723 57.672 46.9323 56.064 46.8363 54.024H52.3803C52.5003 54.936 52.8483 55.62 53.4243 56.076C54.0003 56.532 54.7803 56.76 55.7643 56.76C56.6523 56.76 57.3483 56.604 57.8523 56.292C58.3803 55.98 58.6443 55.524 58.6443 54.924C58.6443 54.516 58.5123 54.192 58.2483 53.952C57.9843 53.688 57.6363 53.484 57.2043 53.34C56.7723 53.172 56.2683 53.052 55.6923 52.98C55.1403 52.884 54.5643 52.776 53.9643 52.656C53.1723 52.512 52.3803 52.344 51.5883 52.152C50.7963 51.936 50.0763 51.624 49.4283 51.216C48.8043 50.808 48.3003 50.268 47.9163 49.596C47.5323 48.9 47.3403 48.012 47.3403 46.932C47.3403 45.972 47.5443 45.12 47.9523 44.376C48.3843 43.632 48.9603 43.02 49.6803 42.54C50.4003 42.036 51.2403 41.664 52.2003 41.424C53.1843 41.16 54.2163 41.028 55.2963 41.028C57.9123 41.028 59.9163 41.556 61.3083 42.612C62.7003 43.668 63.4683 45.108 63.6123 46.932H58.2123C58.0923 46.092 57.7683 45.528 57.2403 45.24C56.7363 44.928 56.0763 44.772 55.2603 44.772C54.5403 44.772 53.9283 44.916 53.4243 45.204C52.9443 45.468 52.7043 45.888 52.7043 46.464C52.7043 46.8 52.8243 47.064 53.0643 47.256C53.3043 47.448 53.6283 47.616 54.0363 47.76C54.4443 47.88 54.9123 47.988 55.4403 48.084C55.9923 48.18 56.5563 48.276 57.1323 48.372C57.9483 48.516 58.7643 48.696 59.5803 48.912C60.4203 49.104 61.1763 49.416 61.8483 49.848C62.5443 50.28 63.1083 50.868 63.5403 51.612C63.9723 52.332 64.1883 53.28 64.1883 54.456C64.1883 55.464 63.9723 56.352 63.5403 57.12C63.1323 57.888 62.5563 58.524 61.8123 59.028C61.0683 59.532 60.1803 59.916 59.1483 60.18C58.1163 60.444 57.0003 60.576 55.8003 60.576ZM74.5529 60.54C73.0409 60.54 71.6729 60.3 70.4489 59.82C69.2249 59.316 68.1929 58.632 67.3529 57.768C66.5129 56.88 65.8649 55.836 65.4089 54.636C64.9529 53.436 64.7249 52.14 64.7249 50.748C64.7249 49.38 64.9529 48.108 65.4089 46.932C65.8649 45.732 66.5129 44.7 67.3529 43.836C68.1929 42.948 69.1889 42.264 70.3409 41.784C71.4929 41.28 72.7769 41.028 74.1929 41.028C75.5129 41.028 76.6889 41.232 77.7209 41.64C78.7769 42.048 79.7009 42.612 80.4929 43.332C81.5969 44.34 82.4129 45.624 82.9409 47.184C83.4929 48.72 83.7569 50.424 83.7329 52.296H70.4849C70.6769 53.544 71.1089 54.528 71.7809 55.248C72.4529 55.968 73.4009 56.328 74.6249 56.328C75.3929 56.328 76.0289 56.172 76.5329 55.86C77.0369 55.524 77.4209 55.068 77.6849 54.492H83.4089C83.2169 55.332 82.8569 56.136 82.3289 56.904C81.8009 57.648 81.1289 58.296 80.3129 58.848C79.5449 59.4 78.6809 59.82 77.7209 60.108C76.7849 60.396 75.7289 60.54 74.5529 60.54ZM77.7929 48.804C77.6729 47.7 77.3009 46.824 76.6769 46.176C76.0529 45.528 75.2609 45.204 74.3009 45.204C73.1729 45.204 72.3089 45.528 71.7089 46.176C71.1089 46.824 70.7129 47.7 70.5209 48.804H77.7929ZM84.7974 41.568H90.4134V44.448H90.5214C91.1694 43.344 91.8894 42.54 92.6814 42.036C93.4734 41.532 94.4334 41.28 95.5614 41.28C96.1134 41.28 96.4974 41.328 96.7134 41.424V46.464H96.5694C94.7694 46.2 93.3294 46.512 92.2494 47.4C91.1934 48.264 90.6654 49.704 90.6654 51.72V60H84.7974V41.568ZM97.0667 41.568H103.115L105.635 49.884C105.755 50.364 105.875 50.832 105.995 51.288C106.139 51.72 106.259 52.104 106.355 52.44C106.451 52.848 106.547 53.232 106.643 53.592H106.715C106.811 53.232 106.907 52.848 107.003 52.44C107.099 52.104 107.207 51.72 107.327 51.288C107.447 50.832 107.579 50.364 107.723 49.884L110.279 41.568H116.147L109.775 60H103.439L97.0667 41.568ZM121.454 60.468C120.542 60.468 119.69 60.348 118.898 60.108C118.13 59.868 117.47 59.508 116.918 59.028C116.366 58.548 115.934 57.96 115.622 57.264C115.31 56.568 115.154 55.764 115.154 54.852C115.154 53.844 115.334 53.004 115.694 52.332C116.078 51.636 116.594 51.072 117.242 50.64C117.89 50.184 118.634 49.836 119.474 49.596C120.338 49.356 121.25 49.176 122.21 49.056C123.938 48.84 125.15 48.6 125.846 48.336C126.542 48.072 126.89 47.628 126.89 47.004C126.89 46.404 126.686 45.924 126.278 45.564C125.894 45.204 125.258 45.024 124.37 45.024C123.434 45.024 122.726 45.228 122.246 45.636C121.766 46.044 121.478 46.632 121.382 47.4H115.982C116.006 46.536 116.198 45.72 116.558 44.952C116.918 44.184 117.434 43.512 118.106 42.936C118.802 42.36 119.666 41.904 120.698 41.568C121.73 41.232 122.942 41.064 124.334 41.064C125.726 41.064 126.902 41.196 127.862 41.46C128.822 41.7 129.638 42.072 130.31 42.576C131.102 43.152 131.69 43.884 132.074 44.772C132.458 45.66 132.65 46.68 132.65 47.832V57.12C132.65 57.864 132.686 58.452 132.758 58.884C132.854 59.292 133.034 59.58 133.298 59.748V60H127.61C127.466 59.808 127.346 59.544 127.25 59.208C127.154 58.848 127.07 58.428 126.998 57.948H126.926C126.374 58.716 125.666 59.328 124.802 59.784C123.962 60.24 122.846 60.468 121.454 60.468ZM123.326 56.724C124.43 56.724 125.318 56.424 125.99 55.824C126.686 55.224 127.034 54.42 127.034 53.412V51.216C126.65 51.408 126.194 51.588 125.666 51.756C125.162 51.9 124.61 52.044 124.01 52.188C122.882 52.452 122.066 52.764 121.562 53.124C121.058 53.46 120.806 53.976 120.806 54.672C120.806 55.416 121.046 55.944 121.526 56.256C122.006 56.568 122.606 56.724 123.326 56.724ZM141.731 60.216C140.867 60.216 140.075 60.144 139.355 60C138.659 59.832 138.047 59.556 137.519 59.172C136.991 58.788 136.583 58.272 136.295 57.624C136.007 56.952 135.863 56.124 135.863 55.14V45.24H133.415V41.568H135.863V35.736H141.587V41.568H144.935V45.24H141.587V53.88C141.587 54.6 141.767 55.08 142.127 55.32C142.511 55.56 143.015 55.68 143.639 55.68C143.903 55.68 144.155 55.68 144.395 55.68C144.635 55.656 144.815 55.644 144.935 55.644V59.928C144.671 60 144.263 60.06 143.711 60.108C143.183 60.18 142.523 60.216 141.731 60.216ZM155.324 56.4C156.62 56.4 157.592 55.896 158.24 54.888C158.912 53.856 159.248 52.5 159.248 50.82C159.248 49.14 158.912 47.784 158.24 46.752C157.592 45.72 156.62 45.204 155.324 45.204C154.028 45.204 153.056 45.72 152.408 46.752C151.76 47.784 151.436 49.14 151.436 50.82C151.436 52.5 151.76 53.856 152.408 54.888C153.056 55.896 154.028 56.4 155.324 56.4ZM155.36 60.576C153.872 60.576 152.516 60.336 151.292 59.856C150.092 59.352 149.06 58.668 148.196 57.804C147.332 56.916 146.66 55.884 146.18 54.708C145.724 53.508 145.496 52.212 145.496 50.82C145.496 49.428 145.724 48.144 146.18 46.968C146.66 45.768 147.332 44.736 148.196 43.872C149.06 42.984 150.092 42.3 151.292 41.82C152.516 41.316 153.872 41.064 155.36 41.064C156.848 41.064 158.192 41.316 159.392 41.82C160.616 42.3 161.648 42.984 162.488 43.872C163.352 44.736 164.012 45.768 164.468 46.968C164.948 48.144 165.188 49.428 165.188 50.82C165.188 52.212 164.948 53.508 164.468 54.708C164.012 55.884 163.352 56.916 162.488 57.804C161.648 58.668 160.616 59.352 159.392 59.856C158.192 60.336 156.848 60.576 155.36 60.576ZM166.631 41.568H172.247V44.448H172.355C173.003 43.344 173.723 42.54 174.515 42.036C175.307 41.532 176.267 41.28 177.395 41.28C177.947 41.28 178.331 41.328 178.547 41.424V46.464H178.403C176.603 46.2 175.163 46.512 174.083 47.4C173.027 48.264 172.499 49.704 172.499 51.72V60H166.631V41.568ZM181.385 61.512H183.401C184.265 61.512 184.877 61.344 185.237 61.008C185.621 60.672 185.813 60.192 185.813 59.568C185.813 59.16 185.717 58.668 185.525 58.092C185.357 57.516 185.081 56.736 184.697 55.752L179.261 41.568H185.453L187.937 49.416C188.081 49.872 188.213 50.352 188.333 50.856C188.477 51.36 188.609 51.816 188.729 52.224C188.849 52.704 188.969 53.184 189.089 53.664H189.161C189.257 53.184 189.365 52.704 189.485 52.224C189.581 51.816 189.689 51.36 189.809 50.856C189.953 50.352 190.097 49.872 190.241 49.416L192.653 41.568H198.521L192.149 60.252C191.789 61.332 191.393 62.244 190.961 62.988C190.529 63.732 190.037 64.332 189.485 64.788C188.957 65.244 188.345 65.568 187.649 65.76C186.953 65.976 186.137 66.084 185.201 66.084H181.385V61.512Z" fill="#191919"/>
</svg>
